PathFileType	4	(X/Y/Z)	TVC_12_BWA2_walk_RCNL2025.trc
DataRate	CameraRate	NumFrames	NumMarkers	Units	OrigDataRate	OrigDataStartFrame	OrigNumFrames
100	100	9	27	mm	100	56	440
Frame#	Time	R_Shoulder			L_Shoulder			C7			J_Notch			R_Elbow			L_Elbow			R_Wrist			L_Wrist			R_Asis			L_Asis			R_Psis			L_Psis			Sacral			Thoracic			Sternum			R_Thigh_Lateral			R_Knee_Lateral			R_Shank_Lateral			R_Ankle_Lateral			R_Heel			R_Toe			L_Thigh_Lateral			L_Knee_Lateral			L_Shank_Lateral			L_Ankle_Lateral			L_Heel			L_Toe		
		X1	Y1	Z1	X2	Y2	Z2	X3	Y3	Z3	X4	Y4	Z4	X5	Y5	Z5	X6	Y6	Z6	X7	Y7	Z7	X8	Y8	Z8	X9	Y9	Z9	X10	Y10	Z10	X11	Y11	Z11	X12	Y12	Z12	X13	Y13	Z13	X14	Y14	Z14	X15	Y15	Z15	X16	Y16	Z16	X17	Y17	Z17	X18	Y18	Z18	X19	Y19	Z19	X20	Y20	Z20	X21	Y21	Z21	X22	Y22	Z22	X23	Y23	Z23	X24	Y24	Z24	X25	Y25	Z25	X26	Y26	Z26	X27	Y27	Z27
56	0.55000000	-493.458923	1336.608643	-35.597305	-520.679688	1336.411377	-454.372833	-605.015808	1412.061523	-237.276382	-457.281342	1297.041992	-244.867233	-620.810486	1026.451416	43.414402	-698.064880	1034.467773	-491.132202	-596.299469	778.070251	10.499045	-687.685486	799.524323	-422.926590	-539.788269	910.872009	-59.560715	-542.067749	906.987915	-403.711060	-718.661072	946.844849	-169.877777	-724.061951	941.594788	-277.338104	-721.361511	944.219818	-223.607941	-704.335510	1160.161255	-235.750992	-377.307037	1103.921997	-254.083115	-648.744934	609.400818	-54.211300	-704.695068	485.665253	-114.078804	-816.177979	289.794067	-90.960114	-879.885315	88.686195	-166.276718	-912.538452	97.309837	-227.980911	-749.649597	48.510666	-168.794342	-514.399841	606.274719	-447.828827	-450.102417	476.569885	-360.630188	-446.029968	281.845978	-396.014648	-411.039917	72.547279	-320.404846	-448.283783	51.980545	-269.941956	-263.321564	47.079201	-304.829956
57	0.56000000	-486.454437	1338.553833	-37.858040	-513.011353	1337.299683	-456.490204	-597.840332	1413.304565	-239.817642	-450.118286	1298.241455	-246.949219	-614.285583	1028.657593	41.426327	-689.842224	1035.164795	-492.985443	-591.003540	779.911346	9.147947	-680.131989	800.266754	-424.246124	-532.990234	912.392517	-60.652069	-534.950134	908.405518	-404.474030	-711.648315	948.298340	-171.069885	-716.900391	942.971619	-278.546509	-714.274353	945.634979	-224.808197	-697.173706	1161.338989	-237.550400	-370.175323	1105.095825	-255.704193	-639.223450	610.288574	-54.591255	-695.120117	486.018616	-113.444771	-810.047729	292.208771	-90.241859	-877.760437	92.225136	-165.381790	-910.322021	101.977180	-227.005188	-748.798645	48.546371	-168.511536	-509.168854	607.262695	-448.636871	-444.781952	477.327667	-361.682251	-442.980591	282.139008	-396.723572	-410.390411	72.692375	-320.692108	-447.847321	52.422848	-270.142761	-262.993011	46.628071	-304.636017
58	0.57000000	-479.433533	1340.654785	-40.127728	-505.375366	1338.372314	-458.598846	-590.682739	1414.655640	-242.341812	-442.972168	1299.557373	-249.025986	-607.755005	1031.036499	39.465641	-681.629944	1036.070557	-494.932648	-585.728241	781.926392	7.732297	-672.463074	801.235077	-425.617798	-526.139648	914.053040	-61.813759	-527.992493	909.900330	-405.406128	-704.639160	949.881470	-172.244995	-709.768677	944.465881	-279.744904	-707.203918	947.173676	-225.994949	-690.020203	1162.619141	-239.344543	-363.073608	1106.380615	-257.355682	-629.749573	611.365906	-54.832882	-685.272461	486.409515	-112.633865	-803.799805	294.825775	-89.407646	-875.375549	96.007126	-164.438553	-907.742004	106.960861	-225.998108	-747.866211	48.537483	-168.191620	-503.387329	608.486267	-449.677185	-439.837616	478.066498	-362.759979	-440.269714	282.471680	-397.438324	-409.886719	72.865898	-321.024353	-447.582092	52.777256	-270.319519	-262.889587	46.546783	-304.457581
59	0.58000000	-472.409882	1342.873535	-42.400368	-497.793701	1339.591064	-460.697205	-583.555725	1416.083862	-244.842789	-435.852997	1300.961182	-251.095535	-601.224609	1033.548340	37.544334	-673.457214	1037.145386	-496.970856	-580.480743	784.078491	6.257659	-664.678467	802.393524	-427.037674	-519.222107	915.817139	-63.044098	-521.179504	911.420044	-406.506134	-697.632202	951.549438	-173.400284	-702.670593	946.043335	-280.932220	-700.151398	948.796387	-227.166252	-682.883850	1163.970825	-241.131531	-356.006561	1107.750488	-259.032745	-620.358032	612.592590	-54.899956	-675.155334	486.809509	-111.640106	-797.418274	297.608429	-88.457733	-872.701294	99.996269	-163.451920	-904.758179	112.220810	-224.965240	-746.849854	48.471184	-167.847916	-496.785614	610.034973	-450.976685	-435.250214	478.753754	-363.854004	-437.865906	282.817627	-398.145386	-409.498749	73.039658	-321.385742	-447.456268	53.047409	-270.471985	-262.949097	46.704201	-304.317474
60	0.59000000	-465.397095	1345.168701	-44.669552	-490.286102	1340.914429	-462.783630	-576.470764	1417.557373	-247.314941	-428.769989	1302.422852	-253.155869	-594.700195	1036.149658	35.672291	-665.352234	1038.345947	-499.094635	-575.264404	786.327698	4.731429	-656.781128	803.702026	-428.501740	-512.227112	917.645447	-64.340477	-514.490723	912.917358	-407.761688	-690.627930	953.256470	-174.534393	-695.610596	947.669983	-282.108643	-693.119263	950.463226	-228.321518	-675.773743	1165.363037	-242.909698	-348.978333	1109.177490	-260.730011	-611.056519	613.916443	-54.765736	-664.762939	487.185852	-110.463646	-790.866516	300.512634	-87.395561	-869.702881	104.154602	-162.425919	-901.327332	117.714752	-223.910065	-745.746521	48.339081	-167.494431	-489.438660	611.873047	-452.503540	-430.989258	479.364075	-364.955200	-435.733673	283.153717	-398.833588	-409.196198	73.192505	-321.760803	-447.433441	53.243439	-270.600739	-263.112183	46.986362	-304.230103
61	0.60000000	-458.408356	1347.497681	-46.928467	-482.869568	1342.298462	-464.856323	-569.437683	1419.044678	-249.753067	-421.731537	1303.911621	-255.204712	-588.187805	1038.794556	33.856972	-657.341187	1039.626709	-501.296112	-570.077179	788.632538	3.162302	-648.776978	805.117523	-430.005905	-505.148712	919.497131	-65.699310	-507.902466	914.352417	-409.150970	-683.628967	954.957031	-175.647415	-688.593628	949.312683	-283.275574	-686.111298	952.134857	-229.461494	-668.698853	1166.765259	-244.677322	-341.992859	1110.633057	-262.441406	-601.821106	615.275024	-54.416061	-654.081360	487.503571	-109.110916	-784.088867	303.489380	-86.226952	-866.341370	108.444817	-161.362976	-897.403809	123.400879	-222.833176	-744.553284	48.140232	-167.142502	-481.743317	613.842346	-454.170258	-427.013611	479.880219	-366.054901	-433.834900	283.460480	-399.494049	-408.950226	73.310669	-322.134674	-447.476410	53.379684	-270.705841	-263.326508	47.301918	-304.199951
62	0.61000000	-451.455719	1349.817017	-49.169987	-475.557739	1343.698975	-466.913055	-562.464600	1420.515015	-252.152313	-414.745239	1305.397339	-257.239258	-581.693542	1041.436523	32.103279	-649.447083	1040.941528	-503.565155	-564.910217	790.950897	1.559591	-640.675171	806.595734	-431.546265	-497.985870	921.331360	-67.115982	-501.390167	915.693787	-410.645233	-676.640381	956.607849	-176.740799	-681.625549	950.940063	-284.435150	-679.132965	953.773956	-230.587975	-661.668274	1168.149170	-246.432434	-335.054077	1112.088257	-264.160339	-592.595825	616.598572	-53.851513	-643.090820	487.727936	-107.594498	-777.015381	306.487579	-84.959274	-862.574829	112.832581	-160.263428	-892.940735	129.239670	-221.732117	-743.267395	47.884003	-166.798141	-474.297974	615.708984	-455.858063	-423.273346	480.292908	-367.144897	-432.129974	283.722382	-400.119965	-408.735016	73.387413	-322.492981	-447.550507	53.472664	-270.786499	-263.549164	47.583721	-304.221497
63	0.62000000	-444.549774	1352.084839	-51.386799	-468.360748	1345.072998	-468.951050	-555.558105	1421.939819	-254.508072	-407.817841	1306.850586	-259.256073	-575.223328	1044.029419	30.413481	-641.689392	1042.245483	-505.889526	-559.747650	793.241425	-0.067482	-632.487457	808.092773	-433.119156	-490.743225	923.108521	-68.584656	-494.930511	916.919434	-412.212036	-669.669800	958.169189	-177.817123	-674.712708	952.523499	-285.589874	-672.191254	955.346344	-231.703499	-654.690796	1169.488525	-248.172653	-328.166046	1113.514526	-265.879791	-583.296753	617.814270	-53.087875	-631.768433	487.826996	-105.932785	-769.567505	309.456451	-83.600639	-858.361328	117.288300	-159.125214	-887.892151	135.194916	-220.601669	-741.884644	47.591442	-166.461487	-467.730377	617.233093	-457.446869	-419.712616	480.599670	-368.217590	-430.578552	283.927856	-400.706726	-408.529022	73.422302	-322.822205	-447.626434	53.539658	-270.840942	-263.747345	47.787590	-304.280670
64	0.63000000	-437.699219	1354.261353	-53.571537	-461.285004	1346.380249	-470.966949	-548.722717	1423.293579	-256.815918	-400.955231	1308.243896	-261.251068	-568.783264	1046.529419	28.787310	-634.083008	1043.496582	-508.255310	-554.566956	795.464569	-1.710350	-624.227631	809.566833	-434.721298	-483.431549	924.791626	-70.098022	-488.503235	918.016479	-413.818207	-662.727112	959.606201	-178.879959	-667.862122	954.037659	-286.742279	-665.294617	956.821930	-232.811119	-647.774841	1170.760986	-249.895111	-321.333191	1114.884888	-267.592224	-573.820862	618.852173	-52.154972	-620.091553	487.774384	-104.149696	-761.665100	312.348175	-82.159409	-853.660461	121.788254	-157.944305	-882.215393	141.234283	-219.434555	-740.396484	47.294804	-166.128159	-462.528870	618.234314	-458.837646	-416.273621	480.803467	-369.266174	-429.139404	284.069366	-401.252228	-408.315735	73.419724	-323.110046	-447.682281	53.597878	-270.866608	-263.898346	47.889339	-304.357483
